# xmcd
#
# Track frame offsets: 
#        150
#        13916
#        25905
#        46720
#        61002
#        80722
#        98193
#        120773
#        138272
#        156091
#        172760
#
# Disc length: 2469 seconds
#
# Revision: 0
# Processed by: cddbd v1.5.2PL0 Copyright (c) Steve Scherf et al.
# Submitted via: ExactAudioCopyFreeDBPlugin 1.0
#
DISCID=7809a30b
DTITLE=Margie Joseph - Margie
DYEAR=1975
DGENRE=Soul
TTITLE0=Sign Of The Times
TTITLE1=Believe In Humanity
TTITLE2=The Same Laugh That Made Me Laugh
TTITLE3=Who Gets Your Love
TTITLE4=Promise Me Your Love
TTITLE5=If You Walked Away
TTITLE6=Stay Still
TTITLE7=After All This Time
TTITLE8=Words (Are Impossible)
TTITLE9=Just As Soon As The Feeling's Over
TTITLE10=I Can't Move No Mountain
EXTD=
EXTT0=
EXTT1=
EXTT2=
EXTT3=
EXTT4=
EXTT5=
EXTT6=
EXTT7=
EXTT8=
EXTT9=
EXTT10=
PLAYORDER=
